<svg width="1532" height="240" viewBox="0 0 1532 240" fill="none" xmlns="http://www.w3.org/2000/svg">
<g opacity="0.25">
<line y1="0.5" x2="1535" y2="0.5" stroke="#A4A6AB"/>
<line x1="56.5" y1="2" x2="56.5" y2="166" stroke="#A4A6AB"/>
<line x1="112.5" y1="2" x2="112.5" y2="140" stroke="#A4A6AB"/>
<line x1="168.5" y1="58" x2="168.5" y2="156" stroke="#A4A6AB"/>
<line x1="224.5" y1="2" x2="224.5" y2="156" stroke="#A4A6AB"/>
<line x1="280.5" y1="2" x2="280.5" y2="166" stroke="#A4A6AB"/>
<line x1="336.5" y1="2" x2="336.5" y2="58" stroke="#A4A6AB"/>
<line x1="392.5" y1="2" x2="392.5" y2="156" stroke="#A4A6AB"/>
<line x1="448.5" y1="2" x2="448.5" y2="166" stroke="#A4A6AB"/>
<line x1="504.5" y1="58" x2="504.5" y2="114" stroke="#A4A6AB"/>
<line x1="560.5" y1="2" x2="560.5" y2="166" stroke="#A4A6AB"/>
<line x1="616.5" y1="2" x2="616.5" y2="161" stroke="#A4A6AB"/>
<line x1="672.5" y1="2" x2="672.5" y2="156" stroke="#A4A6AB"/>
<line x1="728.5" y1="9" x2="728.5" y2="150" stroke="#A4A6AB"/>
<line x1="784.5" y1="5" x2="784.5" y2="169" stroke="#A4A6AB"/>
<line x1="840.5" y1="2" x2="840.5" y2="240" stroke="#A4A6AB"/>
<line x1="896.5" y1="7" x2="896.5" y2="171" stroke="#A4A6AB"/>
<line x1="952.5" y1="2" x2="952.5" y2="158" stroke="#A4A6AB"/>
<line x1="1008.5" y1="2" x2="1008.5" y2="136" stroke="#A4A6AB"/>
<line x1="1064.5" y1="2" x2="1064.5" y2="147" stroke="#A4A6AB"/>
<line x1="1120.5" y1="2" x2="1120.5" y2="166" stroke="#A4A6AB"/>
<line x1="1176.5" y1="2" x2="1176.5" y2="151" stroke="#A4A6AB"/>
<line x1="1232.5" y1="13" x2="1232.5" y2="177" stroke="#A4A6AB"/>
<line x1="1288.5" y1="58" x2="1288.5" y2="166" stroke="#A4A6AB"/>
<line x1="1344.5" y1="2" x2="1344.5" y2="140" stroke="#A4A6AB"/>
<line x1="1400.5" y1="54" x2="1400.5" y2="114" stroke="#A4A6AB"/>
<line x1="1456.5" y1="2" x2="1456.5" y2="140" stroke="#A4A6AB"/>
<line x1="1512.5" y1="2" x2="1512.5" y2="166" stroke="#A4A6AB"/>
<line y1="57.5" x2="1535" y2="57.5" stroke="#A4A6AB"/>
<line y1="113.5" x2="1535" y2="113.5" stroke="#A4A6AB"/>
</g>
</svg>
